<svg xmlns="http://www.w3.org/2000/svg" version="1.1" xmlns:xlink="http://www.w3.org/1999/xlink" xmlns:svgjs="http://svgjs.dev/svgjs" width="1500" height="1500" viewBox="0 0 1500 1500"><rect width="1500" height="1500" fill="#000000"></rect><g transform="matrix(0.6666666666666666,0,0,0.6666666666666666,249.20306762326584,350.04731182795695)"><svg viewBox="0 0 311 248" data-background-color="#ffffff" preserveAspectRatio="xMidYMid meet" height="1196" width="1500" xmlns="http://www.w3.org/2000/svg" xmlns:xlink="http://www.w3.org/1999/xlink"><g id="tight-bounds" transform="matrix(1,0,0,1,0.24784596916433088,0.4000000000000057)"><svg viewBox="0 0 310.50430806167134 247.2" height="247.2" width="310.50430806167134"><g><svg viewBox="0 0 395.52 314.8830514151215" height="247.2" width="310.50430806167134"><g transform="matrix(1,0,0,1,0,233.94361774726468)"><svg viewBox="0 0 395.52 80.93943366785678" height="80.93943366785678" width="395.52"><g id="textblocktransform"><svg viewBox="0 0 395.52 80.93943366785678" height="80.93943366785678" width="395.52" id="textblock"><g><svg viewBox="0 0 395.52 80.93943366785678" height="80.93943366785678" width="395.52"><g transform="matrix(1,0,0,1,0,0)"><svg width="395.52" viewBox="4.25 -36.055802948608 178.38 36.405802948608" height="80.93943366785678" data-palette-color="#89939e"><g class="wordmark-text-0" data-fill-palette-color="primary" id="text-0"><path d="M27.2-35L27.2-31.5 8.25-31.5 8.25-19.55 22.5-19.55 22.5-16.05 8.25-16.05 8.25-3.5 27.2-3.5 27.2 0 4.25 0 4.25-35 27.2-35ZM31.75-25L35.75-25 43.65-4.2 51.6-25 55.55-25 45.55 0 41.65 0 31.75-25ZM71.15 0.35L71.15 0.35Q67.65 0.35 64.92-1.35 62.2-3.05 60.65-6 59.09-8.95 59.09-12.75L59.09-12.75Q59.09-16.4 60.65-19.25 62.2-22.1 64.89-23.73 67.59-25.35 71.05-25.35L71.05-25.35Q74.45-25.35 77.12-23.85 79.8-22.35 81.3-19.7 82.8-17.05 82.7-13.65L82.7-13.65Q82.7-13.1 82.65-12.5 82.59-11.9 82.55-11.2L82.55-11.2 63.2-11.2Q63.3-8.85 64.34-7.05 65.39-5.25 67.12-4.23 68.84-3.2 71.05-3.2L71.05-3.2Q73.95-3.2 75.97-4.3 78-5.4 78.9-7.45L78.9-7.45 82.15-6.15Q80.65-3 77.8-1.33 74.95 0.35 71.15 0.35ZM63.25-14.45L78.59-14.45Q78.65-16.6 77.67-18.25 76.7-19.9 74.95-20.85 73.2-21.8 70.9-21.8L70.9-21.8Q68.9-21.8 67.25-20.85 65.59-19.9 64.52-18.23 63.45-16.55 63.25-14.45L63.25-14.45ZM88.84 0L88.84-25 92.29-25 92.49-21.45Q93.69-23.3 95.64-24.33 97.59-25.35 100.19-25.35L100.19-25.35Q103.04-25.35 105.19-24.13 107.34-22.9 108.54-20.48 109.74-18.05 109.74-14.4L109.74-14.4 109.74 0 105.99 0 105.99-13.95Q105.99-17.85 104.32-19.88 102.64-21.9 99.49-21.9L99.49-21.9Q96.24-21.9 94.42-19.75 92.59-17.6 92.59-13.4L92.59-13.4 92.59 0 88.84 0ZM114.84-25L118.59-25 118.59-32 122.34-32 122.34-25 128.99-25 128.99-21.5 122.34-21.5 122.34-8.05Q122.34-5.75 123.32-4.7 124.29-3.65 125.82-3.45 127.34-3.25 128.99-3.45L128.99-3.45 128.99-0.2Q127.04 0.25 125.17 0.05 123.29-0.15 121.82-1.07 120.34-2 119.47-3.7 118.59-5.4 118.59-8.05L118.59-8.05 118.59-21.5 114.84-21.5 114.84-25ZM135.94-25L135.94-27.95Q135.94-30.7 136.84-32.6 137.74-34.5 139.71-35.38 141.69-36.25 144.99-36L144.99-36 144.99-32.65Q141.99-32.9 140.84-31.68 139.69-30.45 139.69-27.95L139.69-27.95 139.69-25 145.19-25 145.19-21.5 139.69-21.5 139.69 0 135.94 0 135.94-21.5 132.44-21.5 132.44-25 135.94-25ZM171.24-25L171.24 0 167.84 0 167.59-3.6Q166.44-1.7 164.49-0.68 162.53 0.35 159.94 0.35L159.94 0.35Q157.03 0.35 154.88-0.85 152.74-2.05 151.56-4.45 150.38-6.85 150.38-10.5L150.38-10.5 150.38-25 154.09-25 154.09-10.9Q154.09-7.05 155.76-5.08 157.44-3.1 160.59-3.1L160.59-3.1Q163.78-3.1 165.66-5.18 167.53-7.25 167.53-11.45L167.53-11.45 167.53-25 171.24-25ZM178.88 0L178.88-36 182.63-36 182.63 0 178.88 0Z" fill="#ffffff" data-fill-palette-color="primary"></path></g></svg></g></svg></g></svg></g></svg></g><g transform="matrix(1,0,0,1,99.89604886894061,0)"><svg viewBox="0 0 195.72790226211876 195.72790226211876" height="195.72790226211876" width="195.72790226211876"><g><svg></svg></g><g id="icon-0"><svg viewBox="0 0 195.72790226211876 195.72790226211876" height="195.72790226211876" width="195.72790226211876"><g><path d="M0 97.864c0-54.049 43.815-97.864 97.864-97.864 54.049 0 97.864 43.815 97.864 97.864 0 54.049-43.815 97.864-97.864 97.864-54.049 0-97.864-43.815-97.864-97.864zM97.864 188.429c50.018 0 90.565-40.547 90.565-90.565 0-50.018-40.547-90.565-90.565-90.565-50.018 0-90.565 40.547-90.565 90.565 0 50.018 40.547 90.565 90.565 90.565z" data-fill-palette-color="accent" fill="#ffffff" stroke="transparent"></path></g><g transform="matrix(1,0,0,1,60.32966263214923,42.46695625149242)"><svg viewBox="0 0 75.0685769978203 110.79398975913392" height="110.79398975913392" width="75.0685769978203"><g><svg xmlns="http://www.w3.org/2000/svg" xmlns:xlink="http://www.w3.org/1999/xlink" version="1.1" x="0" y="0" viewBox="23.57759730578926 11.00215832551811 52.84480432399962 77.99384167448189" enable-background="new 0 0 100 100" xml:space="preserve" height="110.79398975913392" width="75.0685769978203" class="icon-dxe-0" data-fill-palette-color="accent" id="dxe-0"><path d="M59.19 35.645A1.06 1.06 0 0 1 57.692 35.624 1.06 1.06 0 0 1 57.713 34.126C60.876 31.05 59.776 24.693 59.765 24.629A1.06 1.06 0 0 1 61.849 24.252C61.905 24.557 63.165 31.777 59.19 35.645M62.608 22.655C63.694 23.694 64.242 25.318 64.234 27.482A1.06 1.06 0 0 0 65.29 28.545H65.294A1.06 1.06 0 0 0 66.353 27.489C66.363 24.721 65.594 22.579 64.071 21.123 62.038 19.18 59.364 19.152 58.594 19.19 56.182 19.308 54.351 20.132 53.151 21.638 51.17 24.128 51.752 27.529 51.777 27.672A1.06 1.06 0 0 0 53.863 27.301C53.859 27.275 53.43 24.677 54.817 22.947 55.621 21.944 56.926 21.391 58.698 21.305 59.093 21.287 61.148 21.261 62.608 22.655M76.414 35.961C76.369 37.204 76.23 40.985 73.467 43.271 71.978 44.503 69.96 45.123 67.448 45.123 66.561 45.123 65.613 45.045 64.604 44.891A1 1 0 0 1 64.432 44.849C63.293 45.437 61.746 45.726 59.69 45.726A27 27 0 0 1 58.058 45.672 1.1 1.1 0 0 1 57.84 45.937C54.21 49.104 50.891 50.026 47.922 50.026 46.481 50.026 45.123 49.809 43.851 49.526 39.752 48.615 37.678 46.021 36.659 44.005A12.3 12.3 0 0 1 35.571 40.802C30.568 40.681 27.068 39.561 25.16 37.466 23.974 36.164 23.437 34.509 23.609 32.68 23.71 31.601 24.191 30.699 25 30.067 24.488 27.552 25.747 24.14 27.44 21.854 27.877 21.265 28.339 20.754 28.816 20.325 28.854 18.835 29.719 13.339 40.203 11.323 43.709 10.649 46.647 11.042 48.859 12.454 50.841 11.923 57.955 10.493 63.416 15.463 63.456 15.498 63.487 15.538 63.52 15.577 63.529 15.579 63.538 15.58 63.546 15.583 67.443 16.544 69.836 18.062 71.166 23.21 71.979 23.816 73.777 25.451 73.983 28.142 74.69 29.051 76.563 31.861 76.414 35.961M27.016 29.172A8.7 8.7 0 0 1 28.995 28.988C29.011 25.38 30.703 23.341 32.3 22.22A4 4 0 0 1 31.966 20.899C30.707 21.183 29.613 22.482 29.144 23.116 27.747 25 26.912 27.505 27.016 29.172M73.562 31.662C73.216 32.89 72.599 34.252 71.498 35.303 70.294 36.454 68.739 37.036 66.874 37.036 66.66 37.036 66.443 37.028 66.223 37.013A1.058 1.058 0 1 1 66.368 34.899C67.926 35.006 69.124 34.639 70.031 33.777 71.925 31.975 71.886 28.6 71.885 28.566V28.565C71.839 26.098 69.78 24.816 69.692 24.763A1.07 1.07 0 0 1 69.208 24.102C68.035 19.205 66.097 18.394 63.042 17.641 60.514 17.018 58.658 18.615 58.64 18.632A1.06 1.06 0 0 1 57.24 17.04C57.308 16.979 58.375 16.062 60.054 15.617 56.706 13.689 52.983 13.865 50.826 14.211 50.866 14.26 50.907 14.308 50.946 14.359A1.058 1.058 0 1 1 49.278 15.663C47.071 12.84 43.342 12.876 40.603 13.403 34.114 14.652 31.972 17.222 31.269 18.901A4.4 4.4 0 0 1 32.49 18.727C32.884 18.046 33.457 17.465 34.089 17.019A1.068 1.068 0 0 1 35.699 17.306C35.929 17.711 35.915 18.329 35.342 18.728 34.261 19.479 33.874 20.317 34.184 21.223L34.287 21.184A1.06 1.06 0 0 1 35.01 23.175C33.026 23.895 30.748 25.67 31.16 30.037A1.058 1.058 0 0 1 29.936 31.183C29.438 31.104 28.232 31.026 27.237 31.299A1.04 1.04 0 0 1 26.237 31.793C25.927 32.061 25.76 32.407 25.716 32.878 25.6 34.114 25.94 35.178 26.724 36.04 27.768 37.187 30.147 38.541 35.549 38.683A3.75 3.75 0 0 1 36.387 37.128C37.363 36.04 38.942 35.489 41.083 35.489 42.568 35.489 43.333 35.973 43.893 36.327 44.238 36.545 44.369 36.62 44.594 36.621H44.604C45.604 36.621 46.018 35.872 46.517 34.303 46.581 34.102 46.642 33.913 46.705 33.739 47.144 32.549 48.024 31.879 49.106 31.511 48.044 30.186 48.129 28.637 48.143 28.461A1.058 1.058 0 0 1 50.256 28.62C50.234 29.002 50.26 30.88 52.821 31.1 53.709 31.038 54.351 30.733 54.782 30.164 55.778 28.848 55.505 26.359 55.315 25.512A1.06 1.06 0 0 1 57.382 25.044C57.419 25.207 58.268 29.06 56.476 31.436 55.667 32.51 54.435 33.125 52.913 33.219L52.895 33.22 52.876 33.221 52.82 33.223H52.794C49.18 33.145 48.85 34.041 48.691 34.472 48.644 34.601 48.59 34.768 48.534 34.946 48.142 36.179 47.327 38.74 44.604 38.74H44.582C43.737 38.736 43.195 38.393 42.759 38.117 42.309 37.832 41.953 37.607 41.082 37.607 39.59 37.607 38.512 37.931 37.964 38.542A1.63 1.63 0 0 0 37.541 39.64L37.542 39.664 37.545 39.69C37.563 39.946 38.047 46.068 44.308 47.459 47.53 48.175 51.065 48.377 55.186 45.351A1.059 1.059 0 0 1 55.725 43.324C60.146 43.875 62.954 43.612 64.073 42.542 64.409 42.22 64.843 41.625 64.725 40.176 64.689 39.722 64.528 39.42 64.205 39.197 62.908 38.301 59.746 38.925 58.74 39.214A1.06 1.06 0 1 1 58.155 37.178C58.649 37.035 63.063 35.832 65.41 37.454 66.255 38.039 66.749 38.921 66.836 40.005 66.929 41.157 66.767 42.146 66.356 42.962 68.884 43.151 70.818 42.711 72.113 41.64 73.934 40.134 74.23 37.634 74.294 35.885A10.2 10.2 0 0 0 73.562 31.662M66.201 33.213C69.15 32.811 69.491 30.088 69.491 28.074A1.06 1.06 0 1 0 67.372 28.074C67.372 30.915 66.495 31.034 65.914 31.114 65.41 31.182 65.031 31.114 64.755 30.902 64.364 30.603 64.214 30.032 64.188 29.835A1.059 1.059 0 0 0 62.083 30.069C62.101 30.229 62.283 31.655 63.441 32.562 63.868 32.896 64.561 33.256 65.573 33.256A4.5 4.5 0 0 0 66.201 33.213M50.187 38.052L50.192 38.067 48.202 38.793C48.277 38.998 49.758 42.809 56.118 42.809 57.806 42.809 59.84 42.54 62.281 41.863A1.059 1.059 0 1 0 61.715 39.821C52.093 42.49 50.26 38.234 50.187 38.052M51.892 38.425C51.989 38.435 52.345 38.466 52.834 38.466 53.769 38.466 55.184 38.35 56.159 37.739A1.06 1.06 0 1 0 55.036 35.943C54.374 36.358 52.884 36.392 52.099 36.317A1.06 1.06 0 1 0 51.892 38.425M50.639 20.256L50.649 20.229C50.646 20.237 50.456 20.688 49.768 21.374 49.687 21.012 49.765 20.781 49.801 20.674 50.236 19.392 52.653 18.303 54.074 17.917A1.058 1.058 0 0 0 53.522 15.872C53.035 16.003 48.735 17.232 47.796 19.99 47.572 20.647 47.472 21.609 48.026 22.748 47.649 22.993 47.221 23.247 46.734 23.505 42.555 25.719 42.909 29.626 43.679 31.383A1.06 1.06 0 1 0 45.618 30.532C45.559 30.398 44.221 27.233 47.725 25.376 51.78 23.227 52.57 21.158 52.646 20.93zM44.243 23.938A1.06 1.06 0 0 0 43.163 22.117C42.981 22.224 38.72 24.814 39.85 31.374A1.059 1.059 0 0 0 41.937 31.014C41.066 25.96 44.097 24.028 44.243 23.938M47.636 43.904C42.726 43.656 41.967 40.274 41.933 40.112A1.06 1.06 0 0 0 39.852 40.505C40.183 42.295 42.214 45.751 47.53 46.019L47.584 46.02A1.06 1.06 0 0 0 47.636 43.904M34.112 35.845C32.633 35.315 32.848 33.903 32.904 33.635A1.058 1.058 0 0 0 31.572 32.382C29.905 32.875 27.794 32.727 27.773 32.726A1.059 1.059 0 1 0 27.615 34.839C27.694 34.844 29.175 34.951 30.792 34.711 30.963 35.882 31.634 37.208 33.397 37.839A1.06 1.06 0 0 0 34.112 35.845M72.803 36.446A1.06 1.06 0 0 0 71.395 36.958 2.96 2.96 0 0 1 69.012 38.696 1.06 1.06 0 0 0 69.059 40.813H69.098C69.215 40.809 71.996 40.679 73.315 37.853A1.06 1.06 0 0 0 72.803 36.446M41.253 16.84A1.06 1.06 0 0 0 39.897 17.476C39.861 17.574 39.041 19.902 40.066 22.264A1.06 1.06 0 1 0 42.009 21.42C41.331 19.858 41.877 18.229 41.89 18.191A1.057 1.057 0 0 0 41.253 16.84M38.591 24.945A1.06 1.06 0 0 0 39.389 23.19C38.586 22.27 38.582 20.355 38.58 19.326V19.305C38.579 18.757 38.658 17.4 39.412 16.646 39.798 16.259 40.33 16.071 41.038 16.071 42.253 16.071 43.303 16.071 43.598 18.438A1.058 1.058 0 1 0 45.7 18.176C45.174 13.953 42.276 13.953 41.038 13.953 39.756 13.953 38.705 14.355 37.913 15.149 36.646 16.418 36.46 18.3 36.462 19.309V19.33C36.465 20.636 36.469 23.066 37.794 24.583 38.002 24.823 38.296 24.945 38.591 24.945M41.964 33.105C40.901 33.358 40.126 33.255 39.596 32.79 38.505 31.833 38.489 29.482 38.575 28.657A1.06 1.06 0 0 0 36.468 28.432C36.424 28.846 36.092 32.527 38.193 34.378 38.935 35.031 39.851 35.359 40.93 35.359A6.6 6.6 0 0 0 42.456 35.166 1.06 1.06 0 1 0 41.964 33.105M35.681 24.25C34.308 24.585 31.92 26.456 32.711 31.133A1.06 1.06 0 0 0 34.8 30.78C34.164 27.013 35.995 26.363 36.206 26.301L36.185 26.306zM53.799 82.578A1.06 1.06 0 0 0 52.791 83.687 2.9 2.9 0 0 1 51.965 85.845 3.36 3.36 0 0 1 49.548 86.878 3.245 3.245 0 0 1 46.306 83.636 1.06 1.06 0 1 0 44.188 83.636 5.365 5.365 0 0 0 49.548 88.996 5.5 5.5 0 0 0 53.498 87.307C54.473 86.284 54.973 84.962 54.907 83.584A1.06 1.06 0 0 0 53.799 82.578M54.85 74.51H44.258A1.059 1.059 0 1 0 44.258 76.629H54.85A1.06 1.06 0 0 0 54.85 74.51M54.85 77.157H44.258A1.06 1.06 0 0 0 44.258 79.276H54.85A1.06 1.06 0 1 0 54.85 77.157M54.85 79.806H44.258A1.059 1.059 0 1 0 44.258 81.924H54.85A1.06 1.06 0 1 0 54.85 79.806M69.52 49.176A1.06 1.06 0 0 0 68.041 49.415C65.96 52.299 63.286 54.817 60.095 56.903 55.69 59.781 55.69 62.299 55.69 64.321V70.029A1.59 1.59 0 0 1 54.101 71.617H45.153A1.59 1.59 0 0 1 43.564 70.029V64.321C43.564 62.299 43.564 59.781 39.159 56.903 30.231 51.07 28.09 43.498 28.07 43.424A1.06 1.06 0 0 0 26.023 43.97C26.114 44.31 28.355 52.375 38 58.676 41.445 60.927 41.445 62.5 41.445 64.322V70.03A3.71 3.71 0 0 0 45.152 73.736H54.1A3.71 3.71 0 0 0 57.807 70.03V64.322C57.807 62.501 57.807 60.927 61.252 58.676 64.662 56.448 67.524 53.749 69.758 50.655A1.06 1.06 0 0 0 69.52 49.176" fill="#ffffff" data-fill-palette-color="accent"></path></svg></g></svg></g></svg></g></svg></g><g></g></svg></g><defs></defs></svg><rect width="310.50430806167134" height="247.2" fill="none" stroke="none" visibility="hidden"></rect></g></svg></g></svg>